# xmcd CD database file
#
# Track frame offsets:
#	150
#	26138
#	45973
#	71948
#
# Disc length: 1221 seconds
#
# Revision: 7
# Processed by: cddbd v1.5.2PL0 Copyright (c) Steve Scherf et al.
# Submitted via: CDex 1.51
#
DISCID=3104c304
DTITLE=BRADIO - ギフト
DYEAR=2016
DGENRE=JPop
TTITLE0=ギフト
TTITLE1=Bring It On!
TTITLE2=ギフト -Hidden AFRO ver.-
TTITLE3=Bring It On! -Hidden AFRO ver.-
EXTD=YEAR: 2016
EXTT0=
EXTT1=
EXTT2=
EXTT3=
PLAYORDER=
